<?xml version="1.0" encoding="UTF-8"?>
<!DOCTYPE svg PUBLIC "-//W3C//DTD SVG 1.1//EN" "http://www.w3.org/Graphics/SVG/1.1/DTD/svg11.dtd">
<svg xmlns="http://www.w3.org/2000/svg" version="1.1" width="180px" height="160px" style="shape-rendering:geometricPrecision; text-rendering:geometricPrecision; image-rendering:optimizeQuality; fill-rule:evenodd; clip-rule:evenodd" xmlns:xlink="http://www.w3.org/1999/xlink">
<g><path style="opacity:0.999" fill="#7c39a0" d="M 83.5,42.5 C 73.5322,53.3055 63.6988,64.3055 54,75.5C 53.7216,74.5842 53.2216,73.9175 52.5,73.5C 52.5,59.5 52.5,45.5 52.5,31.5C 61.1731,31.3336 69.8397,31.5002 78.5,32C 80.5793,35.3244 82.2459,38.8244 83.5,42.5 Z"/></g>
<g><path style="opacity:1" fill="#692a9b" d="M 109.5,32.5 C 116.5,32.5 123.5,32.5 130.5,32.5C 130.5,40.1667 130.5,47.8333 130.5,55.5C 123.866,62.3032 117.366,69.3032 111,76.5C 110.814,73.9644 110.314,71.631 109.5,69.5C 109.5,57.1667 109.5,44.8333 109.5,32.5 Z"/></g>
<g><path style="opacity:0.616" fill="#21112d" d="M 87.5,50.5 C 88.9063,50.9731 89.573,51.9731 89.5,53.5C 88.0937,53.0269 87.427,52.0269 87.5,50.5 Z"/></g>
<g><path style="opacity:1" fill="#703099" d="M 83.5,42.5 C 85.341,44.8485 86.6743,47.5152 87.5,50.5C 87.427,52.0269 88.0937,53.0269 89.5,53.5C 91.0075,55.1815 92.0075,57.1815 92.5,59.5C 92.6567,60.8734 92.49,62.2068 92,63.5C 88.5956,67.3939 85.4289,71.3939 82.5,75.5C 79.2509,71.341 76.7509,66.6744 75,61.5C 74.8318,81.0043 74.3318,100.338 73.5,119.5C 73.6665,108.162 73.4999,96.8284 73,85.5C 66.6667,92.5 60.3333,99.5 54,106.5C 53.7216,105.584 53.2216,104.918 52.5,104.5C 52.5,94.1667 52.5,83.8333 52.5,73.5C 53.2216,73.9175 53.7216,74.5842 54,75.5C 63.6988,64.3055 73.5322,53.3055 83.5,42.5 Z"/></g>
<g><path style="opacity:0.999" fill="#5b2192" d="M 130.5,55.5 C 130.5,65.8333 130.5,76.1667 130.5,86.5C 121.143,95.5248 112.476,105.192 104.5,115.5C 105.246,116.736 105.579,118.07 105.5,119.5C 100.739,112.314 96.7387,104.647 93.5,96.5C 96.5213,91.4787 100.521,87.4787 105.5,84.5C 106.906,84.9731 107.573,85.9731 107.5,87.5C 108.979,92.6942 109.646,92.3608 109.5,86.5C 109.5,80.8333 109.5,75.1667 109.5,69.5C 110.314,71.631 110.814,73.9644 111,76.5C 117.366,69.3032 123.866,62.3032 130.5,55.5 Z"/></g>
<g><path style="opacity:0.996" fill="#622790" d="M 92.5,59.5 C 97.5949,67.3537 101.928,75.6871 105.5,84.5C 100.521,87.4787 96.5213,91.4787 93.5,96.5C 89.0723,89.981 85.4056,82.981 82.5,75.5C 85.4289,71.3939 88.5956,67.3939 92,63.5C 92.49,62.2068 92.6567,60.8734 92.5,59.5 Z"/></g>
<g><path style="opacity:1" fill="#6b2b9a" d="M 73.5,119.5 C 66.9999,119.282 60.3332,119.615 53.5,120.5C 52.5052,115.208 52.1718,109.875 52.5,104.5C 53.2216,104.918 53.7216,105.584 54,106.5C 60.3333,99.5 66.6667,92.5 73,85.5C 73.4999,96.8284 73.6665,108.162 73.5,119.5 Z"/></g>
<g><path style="opacity:1" fill="#220c39" d="M 109.5,32.5 C 116.648,31.5084 123.981,31.175 131.5,31.5C 131.831,61.0047 131.498,90.3381 130.5,119.5C 130.5,108.5 130.5,97.5 130.5,86.5C 130.5,76.1667 130.5,65.8333 130.5,55.5C 130.5,47.8333 130.5,40.1667 130.5,32.5C 123.5,32.5 116.5,32.5 109.5,32.5 Z"/></g>
<g><path style="opacity:0.184" fill="#100415" d="M 109.5,86.5 C 109.646,92.3608 108.979,92.6942 107.5,87.5C 108.167,87.1667 108.833,86.8333 109.5,86.5 Z"/></g>
<g><path style="opacity:0.999" fill="#511a8c" d="M 130.5,86.5 C 130.5,97.5 130.5,108.5 130.5,119.5C 122.309,120.031 113.976,120.031 105.5,119.5C 105.579,118.07 105.246,116.736 104.5,115.5C 112.476,105.192 121.143,95.5248 130.5,86.5 Z"/></g>
</svg>
